<svg width="22" height="22" viewBox="0 0 22 22" fill="none" xmlns="http://www.w3.org/2000/svg">
<path d="M22 11.0098C22.0005 10.4575 21.5532 10.0094 21.0009 10.0089C20.4486 10.0084 20.0005 10.4558 20 11.008L22 11.0098ZM18.3922 17.7346L19.1315 18.408L18.3922 17.7346ZM2.47075 5.77972L3.32367 6.30175V6.30174L2.47075 5.77972ZM15.3893 2.01477L14.9503 2.91329L15.3893 2.01477ZM19.2486 7.39998C19.4695 7.90616 20.059 8.13743 20.5651 7.91652C21.0713 7.69562 21.3026 7.1062 21.0817 6.60002L19.2486 7.39998ZM20 11.008C19.998 13.2475 19.1612 15.4057 17.653 17.0611L19.1315 18.408C20.9748 16.3847 21.9976 13.7469 22 11.0098L20 11.008ZM17.653 17.0611C16.1449 18.7166 14.0737 19.7503 11.8442 19.9603L12.0317 21.9515C14.7567 21.6948 17.2882 20.4313 19.1315 18.408L17.653 17.0611ZM11.8442 19.9603C9.61461 20.1703 7.38684 19.5416 5.59605 18.197L4.39516 19.7963C6.58391 21.4398 9.30674 22.2082 12.0317 21.9515L11.8442 19.9603ZM5.59605 18.197C3.80525 16.8524 2.58009 14.8884 2.15988 12.6887L0.195408 13.064C0.708989 15.7525 2.20642 18.1529 4.39516 19.7963L5.59605 18.197ZM2.15988 12.6887C1.73968 10.4891 2.15463 8.21181 3.32367 6.30175L1.61782 5.25769C0.188989 7.59221 -0.318172 10.3756 0.195408 13.064L2.15988 12.6887ZM3.32367 6.30174C4.49271 4.39168 6.33186 2.98606 8.48184 2.35948L7.92224 0.439361C5.29449 1.20519 3.04665 2.92317 1.61782 5.25769L3.32367 6.30174ZM8.48184 2.35948C10.6318 1.73289 12.9382 1.93036 14.9503 2.91329L15.8282 1.11625C13.3689 -0.085121 10.55 -0.326465 7.92224 0.439361L8.48184 2.35948ZM14.9503 2.91329C16.8731 3.85257 18.3953 5.44461 19.2486 7.39998L21.0817 6.60002C20.0387 4.21007 18.1783 2.26425 15.8282 1.11625L14.9503 2.91329ZM10.9746 22C11.9622 22 12.7678 21.5553 13.375 20.8651C13.9582 20.2022 14.3658 19.3107 14.6591 18.3327C15.2466 16.3738 15.4647 13.7578 15.4647 11H13.4647C13.4647 13.6968 13.2465 16.0808 12.7434 17.7582C12.4914 18.5984 12.19 19.1842 11.8734 19.544C11.5809 19.8765 11.2958 20 10.9746 20V22ZM15.4647 11C15.4647 8.24223 15.2466 5.6262 14.6591 3.66727C14.3658 2.68933 13.9582 1.79782 13.375 1.13492C12.7678 0.444709 11.9622 0 10.9746 0V2C11.2958 2 11.5809 2.12347 11.8734 2.45599C12.19 2.81582 12.4914 3.40158 12.7434 4.24183C13.2465 5.91925 13.4647 8.30322 13.4647 11H15.4647ZM10.9746 0C9.98705 0 9.18151 0.444709 8.57427 1.13492C7.99108 1.79782 7.58353 2.68933 7.29023 3.66726C6.70269 5.6262 6.48463 8.24223 6.48463 11H8.48463C8.48463 8.30322 8.70282 5.91925 9.20592 4.24183C9.45793 3.40158 9.7593 2.81582 10.0759 2.45599C10.3684 2.12347 10.6535 2 10.9746 2V0ZM6.48463 11C6.48463 13.7578 6.70269 16.3738 7.29023 18.3327C7.58353 19.3107 7.99108 20.2022 8.57427 20.8651C9.18151 21.5553 9.98705 22 10.9746 22V20C10.6535 20 10.3684 19.8765 10.0759 19.544C9.7593 19.1842 9.45793 18.5984 9.20592 17.7582C8.70282 16.0807 8.48463 13.6968 8.48463 11H6.48463ZM1.75 8H20.25V6H1.75V8ZM2 16H19.45V14H2V16Z" fill="#0000F0"/>
</svg>
