<?xml version="1.0" standalone="no"?>
<!DOCTYPE svg PUBLIC "-//W3C//DTD SVG 20010904//EN"
 "http://www.w3.org/TR/2001/REC-SVG-20010904/DTD/svg10.dtd">
<svg version="1.0" xmlns="http://www.w3.org/2000/svg"
 width="700.000000pt" height="700.000000pt" viewBox="0 0 700.000000 700.000000"
 preserveAspectRatio="xMidYMid meet">
<metadata>
Created by potrace 1.14, written by Peter Selinger 2001-2017
</metadata>
<g transform="translate(0.000000,700.000000) scale(0.100000,-0.100000)"
fill="#000000" stroke="none">
<path d="M0 3500 l0 -3500 3500 0 3500 0 0 3500 0 3500 -3500 0 -3500 0 0
-3500z m6298 0 l2 -2695 -2800 0 -2800 0 0 2695 0 2695 2798 0 2797 0 3 -2695z"/>
<path d="M1240 5305 c0 -100 0 -3233 0 -3610 l0 -121 504 1 c277 0 508 3 512
7 4 4 7 611 7 1349 l0 1341 25 -53 c13 -30 71 -160 129 -289 58 -129 116 -260
130 -290 14 -30 71 -158 128 -285 57 -126 116 -259 132 -295 17 -36 79 -174
138 -307 l109 -243 428 0 c235 0 428 1 428 3 0 1 33 75 74 162 67 146 98 214
158 345 43 94 87 188 123 265 20 44 48 105 62 135 40 85 87 189 121 260 16 36
42 92 57 125 15 33 42 92 60 130 18 39 47 102 65 140 17 39 49 106 70 149 l38
79 0 -1355 c0 -746 2 -1360 5 -1365 6 -10 1002 -12 1012 -2 4 5 9 3319 5 3799
l0 45 -764 0 c-420 0 -766 -2 -769 -5 -4 -5 -54 -110 -82 -175 -7 -16 -29 -65
-49 -108 -20 -44 -36 -80 -36 -82 0 -2 -17 -41 -39 -87 -21 -45 -53 -117 -71
-158 -18 -41 -43 -97 -55 -125 -13 -27 -103 -228 -200 -445 -216 -483 -205
-460 -210 -460 -5 0 -21 34 -108 240 -41 96 -82 191 -91 210 -9 19 -119 278
-246 575 -127 297 -239 558 -250 580 l-19 40 -766 0 -765 0 0 -120z"/>
</g>
</svg>
