<svg xmlns="http://www.w3.org/2000/svg" enable-background="new 0 0 24 24" viewBox="0 0 24 24" id="researchgate"><path d="M9.276,13.942c-1.049,0-1.936-0.269-1.999-0.289c-0.396-0.122-0.617-0.543-0.494-0.938c0.123-0.395,0.543-0.618,0.938-0.493c0.644,0.199,2.224,0.429,2.998-0.142c0.357-0.263,0.53-0.698,0.53-1.33c0-0.782-0.335-1.032-0.445-1.114c-0.798-0.598-2.544-0.267-3.092-0.104c-0.394,0.12-0.814-0.108-0.932-0.506C6.663,8.628,6.89,8.211,7.287,8.094c0.29-0.087,2.88-0.809,4.416,0.34c0.478,0.356,1.047,1.048,1.047,2.316c0,1.403-0.62,2.154-1.141,2.538C10.922,13.794,10.054,13.942,9.276,13.942z"></path><path d="M7.5,18c-0.414,0-0.75-0.336-0.75-0.75V8.812c0-0.414,0.336-0.75,0.75-0.75s0.75,0.336,0.75,0.75v8.438C8.25,17.664,7.914,18,7.5,18z"></path><path d="M13.5 18.023c-1.778 0-2.429-.939-3.855-2.997-.887-1.278-1.878-1.127-1.985-1.104-.403.082-.799-.176-.885-.575s.155-.793.553-.887c.081-.02 2.046-.456 3.539 1.695 1.436 2.071 1.702 2.367 2.633 2.367.414 0 .75.336.75.75S13.914 18.023 13.5 18.023zM7.122 9.579c-.27 0-.555-.029-.83-.108C5.895 9.355 5.665 8.94 5.779 8.542c.115-.397.529-.625.928-.513.466.136 1.154-.041 1.313-.094.395-.133.818.077.952.469.133.393-.077.818-.469.951C8.415 9.386 7.817 9.579 7.122 9.579zM8.5 18h-2c-.414 0-.75-.336-.75-.75S6.086 16.5 6.5 16.5h2c.414 0 .75.336.75.75S8.914 18 8.5 18zM13.75 9.75C13.336 9.75 13 9.414 13 9V7c0-1.24 1.009-2.25 2.25-2.25S17.5 5.76 17.5 7c0 .414-.336.75-.75.75S16 7.414 16 7c0-.413-.336-.75-.75-.75S14.5 6.587 14.5 7v2C14.5 9.414 14.164 9.75 13.75 9.75z"></path><path d="M15.25,11.25C14.009,11.25,13,10.24,13,9c0-0.414,0.336-0.75,0.75-0.75S14.5,8.586,14.5,9c0,0.413,0.336,0.75,0.75,0.75c0.323,0,0.599-0.205,0.704-0.492H15.75c-0.414,0-0.75-0.336-0.75-0.75s0.336-0.75,0.75-0.75h0.979c0.402,0,0.732,0.316,0.75,0.718L17.5,8.968C17.5,10.24,16.491,11.25,15.25,11.25z"></path><path d="M23.25,24H0.75C0.336,24,0,23.664,0,23.25V0.75C0,0.336,0.336,0,0.75,0h22.5C23.664,0,24,0.336,24,0.75v22.5C24,23.664,23.664,24,23.25,24z M1.5,22.5h21v-21h-21V22.5z"></path></svg>